<svg xmlns="http://www.w3.org/2000/svg" width="24" height="24" viewBox="0 0 24 24">
    <defs>
        <filter id="595p75c4ya">
            <feColorMatrix in="SourceGraphic" values="0 0 0 0 0.000000 0 0 0 0 0.000000 0 0 0 0 0.000000 0 0 0 0.600000 0"/>
        </filter>
    </defs>
    <g fill="none" fill-rule="evenodd">
        <g>
            <g filter="url(#595p75c4ya)" transform="translate(-253 -487) translate(253 487)">
                <path d="M0 0L24 0 24 24 0 24z"/>
                <path fill="#000" fill-rule="nonzero" d="M3 17.25V21h3.75L17.81 9.94l-3.75-3.75L3 17.25zM5.92 19H5v-.92l9.06-9.06.92.92L5.92 19zM20.71 5.63l-2.34-2.34c-.2-.2-.45-.29-.71-.29-.26 0-.51.1-.7.29l-1.83 1.83 3.75 3.75 1.83-1.83c.39-.39.39-1.02 0-1.41z"/>
            </g>
        </g>
    </g>
</svg>
