<svg xmlns="http://www.w3.org/2000/svg" width="18" height="19" viewBox="0 0 24 24">
    <defs>
        <filter id="knh3t7wd9a">
            <feColorMatrix in="SourceGraphic" values="0 0 0 0 0.000000 0 0 0 0 0.000000 0 0 0 0 0.000000 0 0 0 0.600000 0"/>
        </filter>
    </defs>
    <g fill="none" fill-rule="evenodd">
        <g>
            <g>
                <g filter="url(#knh3t7wd9a)" transform="translate(-1400 -150) translate(1219 138) translate(181 12)">
                    <path d="M0 0L24 0 24 24 0 24z"/>
                    <path fill="#000" fill-rule="nonzero" d="M12 8c1.1 0 2-.9 2-2s-.9-2-2-2-2 .9-2 2 .9 2 2 2zm0 2c-1.1 0-2 .9-2 2s.9 2 2 2 2-.9 2-2-.9-2-2-2zm0 6c-1.1 0-2 .9-2 2s.9 2 2 2 2-.9 2-2-.9-2-2-2z"/>
                </g>
            </g>
        </g>
    </g>
</svg>
