<svg xmlns="http://www.w3.org/2000/svg" width="32" height="32" viewBox="0 0 32 32">
    <defs>
        <filter id="nuhdtt4zoa">
            <feColorMatrix in="SourceGraphic" values="0 0 0 0 0.000000 0 0 0 0 0.000000 0 0 0 0 0.000000 0 0 0 0.600000 0"/>
        </filter>
    </defs>
    <g fill="none" fill-rule="evenodd">
        <g>
            <g>
                <g>
                    <g filter="url(#nuhdtt4zoa)" transform="translate(-52 -77) translate(0 63) translate(17 6) translate(35 8)">
                        <path d="M0 0L32 0 32 32 0 32z"/>
                        <path fill="#000" fill-rule="nonzero" d="M12.227 8l2.666 2.667h11.774V24H5.333V8h6.894m1.106-2.667h-8C3.867 5.333 2.68 6.533 2.68 8l-.013 16c0 1.467 1.2 2.667 2.666 2.667h21.334c1.466 0 2.666-1.2 2.666-2.667V10.667C29.333 9.2 28.133 8 26.667 8H16l-2.667-2.667z"/>
                    </g>
                </g>
            </g>
        </g>
    </g>
</svg>
