<svg xmlns="http://www.w3.org/2000/svg" width="32" height="32" viewBox="0 0 32 32">
    <defs>
        <filter id="mnvecd23ra">
            <feColorMatrix in="SourceGraphic" values="0 0 0 0 0.000000 0 0 0 0 0.000000 0 0 0 0 0.000000 0 0 0 0.600000 0"/>
        </filter>
    </defs>
    <g fill="none" fill-rule="evenodd">
        <g>
            <g>
                <g>
                    <g filter="url(#mnvecd23ra)" transform="translate(-1378 -75) translate(0 56) translate(1371 19) translate(7)">
                        <path d="M0 0H32V32H0z"/>
                        <path fill="#000" fill-rule="nonzero" d="M25.333 4H6.667C5.187 4 4 5.2 4 6.667v18.666C4 26.8 5.187 28 6.667 28h18.666C26.8 28 28 26.8 28 25.333V6.667C28 5.2 26.813 4 25.333 4zm0 21.333H6.667v-16h18.666v16zM16 14c2.453 0 4.64 1.28 5.787 3.333-1.147 2.054-3.334 3.334-5.787 3.334s-4.64-1.28-5.787-3.334C11.36 15.28 13.547 14 16 14m0-2c-3.64 0-6.747 2.213-8 5.333 1.253 3.12 4.36 5.334 8 5.334 3.64 0 6.747-2.214 8-5.334C22.747 14.213 19.64 12 16 12zm0 7.333c-1.107 0-2-.893-2-2 0-1.106.893-2 2-2s2 .894 2 2c0 1.107-.893 2-2 2z"/>
                    </g>
                </g>
            </g>
        </g>
    </g>
</svg>
