<svg xmlns="http://www.w3.org/2000/svg" width="24" height="25" viewBox="0 0 24 25">
    <defs>
        <filter id="hahnb8jqga">
            <feColorMatrix in="SourceGraphic" values="0 0 0 0 0.000000 0 0 0 0 0.000000 0 0 0 0 0.000000 0 0 0 0.600000 0"/>
        </filter>
    </defs>
    <g fill="none" fill-rule="evenodd">
        <g>
            <g>
                <g>
                    <g filter="url(#hahnb8jqga)" transform="translate(-1045 -228) translate(49 214) translate(988 6) translate(8 8.473)">
                        <path d="M0 0H24V24H0z"/>
                        <path fill="#000" fill-rule="nonzero" d="M19 3H5c-1.11 0-2 .9-2 2v14c0 1.1.89 2 2 2h14c1.1 0 2-.9 2-2V5c0-1.1-.89-2-2-2zm0 16H5V7h14v12zm-7-8.5c1.84 0 3.48.96 4.34 2.5-.86 1.54-2.5 2.5-4.34 2.5-1.84 0-3.48-.96-4.34-2.5.86-1.54 2.5-2.5 4.34-2.5M12 9c-2.73 0-5.06 1.66-6 4 .94 2.34 3.27 4 6 4s5.06-1.66 6-4c-.94-2.34-3.27-4-6-4zm0 5.5c-.83 0-1.5-.67-1.5-1.5s.67-1.5 1.5-1.5 1.5.67 1.5 1.5-.67 1.5-1.5 1.5z"/>
                    </g>
                </g>
            </g>
        </g>
    </g>
</svg>
