<svg xmlns="http://www.w3.org/2000/svg" width="105" height="72" viewBox="0 0 105 72">
    <g fill="none" fill-rule="evenodd">
        <g>
            <g>
                <g>
                    <path d="M0 0L105 0 105 72 0 72z" transform="translate(-1329 7) translate(0 -7) translate(1329)"/>
                    <path fill="#06C" d="M37.662 31.438c0-1.37-.602-2.055-1.804-2.055H34.79v4.202h1.178c1.129 0 1.693-.716 1.694-2.147zm8.818 5.46c0-.53-.018-1.221-.055-2.073-.05-1.086-.504-1.629-1.363-1.629-.834 0-1.282.55-1.344 1.647-.036.667-.055 1.352-.055 2.055 0 .284.019.938.055 1.962.037 1.123.485 1.684 1.344 1.684.798 0 1.252-.549 1.363-1.648.037-.406.055-1.073.055-1.998zm25.995-1.333c.01-.382-.014-.74-.074-1.073-.16-.864-.6-1.296-1.325-1.296-.836.013-1.289.555-1.363 1.629l-.02.74h2.782zM40.202 42.21h-2.209c-.025-.135-.062-.438-.11-.907l-.221-3.443c-.11-1.592-.658-2.387-1.639-2.387H34.79v6.737h-2.21V27.495h3.425c2.577 0 3.871 1.302 3.884 3.906 0 1.555-.46 2.61-1.38 3.165.821.48 1.276 1.512 1.362 3.09.06.976.135 2.185.221 3.629.024.346.06.654.11.925zm8.506-5.312c0 .568-.019 1.154-.056 1.759-.073 1.172-.43 2.098-1.068 2.776-.638.679-1.479 1.018-2.522 1.018-1.043 0-1.883-.34-2.522-1.018-.638-.678-.988-1.604-1.05-2.776-.049-.704-.073-1.29-.073-1.76.013-.801.037-1.38.074-1.739.233-2.566 1.423-3.85 3.571-3.85 2.124 0 3.314 1.284 3.572 3.85.05.432.073 1.012.074 1.74zm8.689-1.425h-2.209c-.012-.247-.025-.462-.037-.648-.013-1.086-.46-1.629-1.344-1.629-.81.013-1.265.562-1.362 1.647-.037.519-.055 1.204-.055 2.055 0 .53.011 1.197.036 1.998.11 1.1.57 1.648 1.381 1.648.81 0 1.257-.561 1.344-1.684.012-.124.018-.265.018-.426h2.228c-.198 2.678-1.4 4.017-3.608 4.017-1.044 0-1.885-.34-2.522-1.018-.627-.678-.976-1.604-1.05-2.776-.05-.704-.067-1.29-.055-1.76 0-.801.018-1.38.055-1.739.233-2.566 1.423-3.85 3.572-3.85 2.319 0 3.522 1.388 3.608 4.165zm8.56-.148v6.885H63.71v-6.793c0-.79-.087-1.313-.257-1.573-.245-.382-.626-.56-1.143-.537-.858.038-1.289.426-1.289 1.166v7.737h-2.225V27.384h2.225v4.535c.505-.407 1.13-.611 1.88-.611.71-.012 1.306.154 1.786.5.564.42.932.938 1.103 1.555.11.395.165 1.049.165 1.962zm8.707 2.11h-4.988c0 .42.017.895.054 1.425.074 1.123.522 1.684 1.346 1.684.771 0 1.226-.542 1.362-1.629.013-.135.018-.258.018-.37h2.154c-.074 1.222-.43 2.178-1.069 2.87-.625.69-1.446 1.036-2.465 1.036-1.02 0-1.848-.34-2.486-1.018-.625-.69-.977-1.616-1.048-2.776-.037-.654-.057-1.24-.057-1.76 0-.752.024-1.331.074-1.739.245-2.566 1.417-3.85 3.517-3.85 1.068 0 1.919.395 2.557 1.184.566.704.885 1.592.96 2.666.037.383.059 1.142.071 2.277zm9.962-1.278L70.707 19.814h-36.36L20.394 36.102l13.955 16.196h36.36l13.918-16.14zM87 36.12L71.59 54H33.464L18 36.047 33.464 18H71.59L87 36.12z" transform="translate(-1329 7) translate(0 -7) translate(1329)"/>
                </g>
            </g>
        </g>
    </g>
</svg>
