<svg xmlns="http://www.w3.org/2000/svg" width="24" height="24" viewBox="0 0 24 24">
    <defs>
        <filter id="uwyzrwiuia">
            <feColorMatrix in="SourceGraphic" values="0 0 0 0 0.000000 0 0 0 0 0.000000 0 0 0 0 0.000000 0 0 0 0.600000 0"/>
        </filter>
    </defs>
    <g fill="none" fill-rule="evenodd">
        <g>
            <g>
                <g>
                    <g filter="url(#uwyzrwiuia)" transform="translate(-1401 -258) translate(1219 138) translate(4 108) translate(178 12)">
                        <path d="M0 0L24 0 24 24 0 24z"/>
                        <path fill="#000" fill-rule="nonzero" d="M7 11v2h10v-2H7zm5-9C6.48 2 2 6.48 2 12s4.48 10 10 10 10-4.48 10-10S17.52 2 12 2zm0 18c-4.41 0-8-3.59-8-8s3.59-8 8-8 8 3.59 8 8-3.59 8-8 8z"/>
                    </g>
                </g>
            </g>
        </g>
    </g>
</svg>
