
<svg xmlns="http://www.w3.org/2000/svg" width="24" height="24" viewBox="0 0 24 24">
    <defs>
        <filter id="mkuywebkga">
            <feColorMatrix in="SourceGraphic" values="0 0 0 0 0.000000 0 0 0 0 0.100000 0 0 0 0 0.800000 0 0 0 1.000000 0"/>
        </filter>
    </defs>
    <g fill="none" fill-rule="evenodd">
        <g>
            <g>
                <g>
                    <g filter="url(#mkuywebkga)" transform="translate(-1232 -149) translate(1216 137) translate(8 4) translate(8 8)">
                        <path d="M0 0H24V24H0z"/>
                        <path fill="#000" fill-rule="nonzero" d="M19 5v14H5V5h14m0-2H5c-1.1 0-2 .9-2 2v14c0 1.1.9 2 2 2h14c1.1 0 2-.9 2-2V5c0-1.1-.9-2-2-2z"/>
                        <path fill="#000" fill-rule="nonzero" d="M9 17H7v-2h2v2zm0-4H7v-2h2v2zm0-4H7V7h2v2zm8 8h-7v-2h7v2zm0-4h-7v-2h7v2zm0-4h-7V7h7v2z"/>
                    </g>
                </g>
            </g>
        </g>
    </g>
</svg>
